# xmcd
#
# Track frame offsets: 
#        150
#        16201
#        31961
#        48590
#        66253
#        83182
#        97830
#        116281
#        130740
#        150225
#        169233
#        187213
#        202881
#        220730
#        241339
#        257504
#        275369
#
# Disc length: 3894 seconds
#
# Revision: 0
# Processed by: cddbd v1.5.2PL0 Copyright (c) Steve Scherf et al.
# Submitted via: ExactAudioCopy v0.99pb4
#
DISCID=dc0f3411
DTITLE=Various Artist - Country Heat 2009
DYEAR=2008
DGENRE=Country
TTITLE0=Carrie Underwood - All-American Girl
TTITLE1=Brooks and Dunn - Put a Girl in It
TTITLE2=Doc Walker - Beautiful Life
TTITLE3=Alan Jackson - Good Time
TTITLE4=Aaron Lines - Moments That Matter
TTITLE5=Jason Blaine - Flirtin' with Me
TTITLE6=Aaron Pritchett - Let's Get Rowdy
TTITLE7=The Lost Trailers - Holler Back
TTITLE8=Deric Ruttan - First Time in a Long Time
TTITLE9=The Higgins - Flower Child
TTITLE10=Montgomery Gentry - Back When I Knew It All
TTITLE11=Shane Yellowbird - Drive Me Home
TTITLE12=Brad Paisley - I'm Still a Guy
TTITLE13=Paul Brandt - Risk
TTITLE14=Crystal Shawanda - What Do I Have to Do
TTITLE15=Keith Anderson - I Still Miss You
TTITLE16=Kenny Chesney - Better as a Memory
EXTD=
EXTT0=
EXTT1=
EXTT2=
EXTT3=
EXTT4=
EXTT5=
EXTT6=
EXTT7=
EXTT8=
EXTT9=
EXTT10=
EXTT11=
EXTT12=
EXTT13=
EXTT14=
EXTT15=
EXTT16=
PLAYORDER=
